<svg width="155" height="191" viewBox="0 0 155 191" fill="none" xmlns="http://www.w3.org/2000/svg">
<mask id="mask0_16_158" style="mask-type:luminance" maskUnits="userSpaceOnUse" x="52" y="0" width="103" height="132">
<path d="M52.27 0H154.958V131.257H52.27V0Z" fill="white"/>
</mask>
<g mask="url(#mask0_16_158)">
<path d="M153.023 -0.017532L152.851 -0.0140508C148.112 0.428061 140.196 2.99486 129.103 7.68403C122.762 10.6512 116.414 14.3494 110.06 18.7798C102.338 24.2058 95.1043 30.1215 88.3608 36.5269C82.9336 42.0887 78.1333 47.7317 73.9598 53.4559L66.242 65.3802L61.2488 75.3085L57.4458 85.3936L54.833 95.6329L53.4104 106.028L53.178 116.578L53.8334 123.906C78.4971 86.916 101.509 56.7236 122.87 33.3311L79.2303 91.7839L54.125 127.207L52.355 130.99L56.9427 131.148C71.2462 130.925 86.4297 124.209 102.493 110.998C102.748 110.537 102.611 110.246 102.08 110.122C93.8615 110.175 89.7001 109.721 89.5971 108.763C98.7978 103.585 106.27 98.3204 112.014 92.971C101.64 95.4391 95.7773 96.5206 94.427 96.2143C101.377 93.8146 109.403 89.477 118.507 83.1992C118.697 82.814 118.547 82.6388 118.057 82.6724C114.642 83.1946 112.56 83.4244 111.808 83.3617C111.246 83.3872 111.069 83.1227 111.279 82.5703C117.228 78.4985 124.255 70.942 132.363 59.8985L119.092 63.2439C117.252 63.5177 116.537 63.2497 116.948 62.4362C122.473 59.5144 129.226 54.8461 137.208 48.4326C141.384 44.8005 144.577 41.2485 146.789 37.7789L149.933 31.6729C150.705 29.1328 151.534 25.1503 152.42 19.7278C153.859 10.2473 154.657 4.44072 154.815 2.30674C154.946 0.946759 154.349 0.171613 153.023 -0.017532Z" fill="#B05730"/>
</g>
<path d="M69.2932 94.33L68.0745 96.0845L66.8152 97.9771C65.9384 99.3557 64.986 100.97 63.9591 102.818C62.9311 104.667 61.8286 106.75 60.6504 109.067C58.2952 113.702 55.6374 119.275 52.6794 125.788C54.4352 122.892 55.9903 120.434 57.3471 118.416C64.0534 108.605 69.5716 100.719 73.9007 94.7582L69.2932 94.33Z" fill="#B05730"/>
<path d="M76.8906 95.0346L75.1053 97.5306L48.219 135.428C43.3189 145.896 38.9668 155.83 35.1627 165.232C34.7747 166.145 34.7517 166.696 35.0936 166.885C45.067 150.071 53.9684 136.098 61.7969 124.962C69.0095 114.568 76.2966 104.801 83.656 95.6624L76.8906 95.0346Z" fill="#B05730"/>
<path d="M31.0348 143.585L30.5252 143.584C25.7183 143.621 21.7794 144.097 18.7095 145.013C15.5915 145.943 12.274 147.591 8.75486 149.954C3.33092 153.791 0.42879 158.821 0.0473936 165.047C-0.404146 171.782 2.37085 178.106 8.37128 184.02C12.8812 188.461 19.6981 190.781 28.821 190.978C34.3008 191.218 39.1143 189.471 43.2625 185.738C46.7861 182.829 48.0453 178.473 47.0425 172.671C46.134 169.445 44.5788 167.183 42.3781 165.887C45.7515 170.356 46.7061 174.774 45.2429 179.143C43.3294 183.694 39.8859 186.693 34.9113 188.138C30.8189 189.119 26.4 189.149 21.6566 188.227C17.5807 187.519 13.8128 185.782 10.3528 183.017C4.18139 177.772 1.50284 171.021 2.31495 162.763C3.63669 156.04 8.79761 150.976 17.7977 147.571C23.5669 145.543 31.4151 145.172 41.3402 146.455C43.8905 146.811 46.9516 147.395 50.5233 148.202C71.7391 153.684 83.5383 156.625 85.9209 157.025C91.9181 158.305 97.5743 159.117 102.888 159.462C112.218 160.211 121.641 158.834 131.157 155.331C119.301 157.58 108.251 158.096 98.0084 156.88C93.505 156.362 88.6554 155.503 83.4605 154.303C79.664 153.468 69.4167 150.877 52.7185 146.528L46.9691 145.266C42.4482 144.246 37.1361 143.686 31.0348 143.585Z" fill="#B05730"/>
</svg>
